<?xml version="1.0" encoding="UTF-8"?>
<svg width="32px" height="32px" viewBox="0 0 32 32" version="1.1" xmlns="http://www.w3.org/2000/svg" xmlns:xlink="http://www.w3.org/1999/xlink">
    <!-- Generator: sketchtool 56.3 (101010) - https://sketch.com -->
    <title>411e88b5-b501-4fd9-bc42-6c5b16d67d91@3.00x</title>
    <desc>Created with sketchtool.</desc>
    <defs>
        <linearGradient x1="50%" y1="96.746297%" x2="50%" y2="3.12250226e-15%" id="linearGradient-1">
            <stop stop-color="#38B899" offset="0%"></stop>
            <stop stop-color="#12A2E1" offset="100%"></stop>
        </linearGradient>
    </defs>
    <g id="Styles" stroke="none" stroke-width="1" fill="none" fill-rule="evenodd">
        <g id="Icons-/-Ready" fill-rule="nonzero">
            <g id="Group" transform="translate(-0.000000, 2.000000)">
                <polygon id="Star" fill="url(#linearGradient-1)" opacity="0.5" points="11.8882065 25.75 4.5408908 29.6127124 5.94410323 21.4313562 -1.84741111e-13 15.6372876 8.21454863 14.4436438 11.8882065 7 15.5618643 14.4436438 23.7764129 15.6372876 17.8323097 21.4313562 19.2355221 29.6127124"></polygon>
                <path d="M16,28 C8.2680135,28 2,21.7319865 2,14 C2,6.2680135 8.2680135,0 16,0 C23.7319865,0 30,6.2680135 30,14 C30,21.7319865 23.7319865,28 16,28 Z M16,26 C22.627417,26 28,20.627417 28,14 C28,7.372583 22.627417,2 16,2 C9.372583,2 4,7.372583 4,14 C4,20.627417 9.372583,26 16,26 Z M15.0054949,16.8417658 L20.900788,8.42624828 C21.2176624,7.9739109 21.8412317,7.86409639 22.293569,8.18097072 C22.7459064,8.49784505 22.8557209,9.12141434 22.5388466,9.57375172 L15.8838447,19.0737517 C15.5029374,19.6174961 14.7076644,19.6459457 14.2888774,19.130809 L10.2240619,14.130809 C9.87567568,13.7022703 9.94065217,13.0724481 10.369191,12.7240619 C10.7977297,12.3756757 11.4275519,12.4406522 11.7759381,12.869191 L15.0054949,16.8417658 Z" id="Combined-Shape" fill="#2E2E33"></path>
            </g>
        </g>
    </g>
</svg>