<?xml version="1.0" encoding="UTF-8"?>
<svg width="32px" height="32px" viewBox="0 0 32 32" version="1.1" xmlns="http://www.w3.org/2000/svg" xmlns:xlink="http://www.w3.org/1999/xlink">
    <!-- Generator: sketchtool 56.3 (101010) - https://sketch.com -->
    <title>6e6234a2-6346-4151-9d7f-ccb77003ea1f@3.00x</title>
    <desc>Created with sketchtool.</desc>
    <defs>
        <linearGradient x1="50%" y1="96.746297%" x2="50%" y2="3.12250226e-15%" id="linearGradient-1">
            <stop stop-color="#38B899" offset="0%"></stop>
            <stop stop-color="#12A2E1" offset="100%"></stop>
        </linearGradient>
    </defs>
    <g id="Styles" stroke="none" stroke-width="1" fill="none" fill-rule="evenodd">
        <g id="Icons-/-Connect">
            <g id="Group">
                <rect id="Body" x="0" y="0" width="32" height="32"></rect>
                <circle id="Oval" fill="url(#linearGradient-1)" fill-rule="nonzero" opacity="0.5" cx="21.5" cy="10.5" r="10.5"></circle>
                <path d="M15,15 L15,8 L17,8 L17,15 L24,15 L24,17 L17,17 L17,24 L15,24 L15,17 L8,17 L8,15 L15,15 Z M16,30 C8.2680135,30 2,23.7319865 2,16 C2,8.2680135 8.2680135,2 16,2 C23.7319865,2 30,8.2680135 30,16 C30,23.7319865 23.7319865,30 16,30 Z M16,28 C22.627417,28 28,22.627417 28,16 C28,9.372583 22.627417,4 16,4 C9.372583,4 4,9.372583 4,16 C4,22.627417 9.372583,28 16,28 Z" id="Combined-Shape" fill="#2E2E33" fill-rule="nonzero"></path>
            </g>
        </g>
    </g>
</svg>