<?xml version="1.0" encoding="UTF-8"?>
<svg width="32px" height="32px" viewBox="0 0 32 32" version="1.1" xmlns="http://www.w3.org/2000/svg" xmlns:xlink="http://www.w3.org/1999/xlink">
    <!-- Generator: sketchtool 56.3 (101010) - https://sketch.com -->
    <title>b4f20e43-eb19-4fb0-8eff-db327b1c43dc@3.00x</title>
    <desc>Created with sketchtool.</desc>
    <defs>
        <linearGradient x1="50%" y1="96.746297%" x2="50%" y2="3.12250226e-15%" id="linearGradient-1">
            <stop stop-color="#38B899" offset="0%"></stop>
            <stop stop-color="#12A2E1" offset="100%"></stop>
        </linearGradient>
    </defs>
    <g id="Styles" stroke="none" stroke-width="1" fill="none" fill-rule="evenodd">
        <g id="Icons-/-Promotion">
            <g id="Group" transform="translate(0.000000, -0.000000)">
                <rect id="Body" x="0" y="0" width="32" height="32"></rect>
                <polygon id="Path" fill="url(#linearGradient-1)" fill-rule="nonzero" opacity="0.5" points="31.5917117 15.0082883 23.8079279 15.0082883 23.9275676 -7.63833441e-14 13 17.0190991 20.7837838 17.0190991 20.6641441 31.8731532"></polygon>
                <path d="M11.8786797,7.94974747 L7.63603897,12.1923882 C4.12132034,15.7071068 4.12132034,21.4055916 7.63603897,24.9203102 C11.1507576,28.4350288 16.8492424,28.4350288 20.363961,24.9203102 L24.6066017,20.6776695 L23.1923882,19.263456 L18.9497475,23.5060967 C16.2160774,26.2397667 11.7839226,26.2397667 9.05025253,23.5060967 C6.31658249,20.7724266 6.31658249,16.3402718 9.05025253,13.6066017 L13.2928932,9.36396103 L11.8786797,7.94974747 Z M6.22182541,10.7781746 L14,3 L18.2426407,7.24264069 L10.4644661,15.0208153 C8.51184464,16.9734367 8.51184464,20.1392616 10.4644661,22.0918831 C12.4170876,24.0445046 15.5829124,24.0445046 17.5355339,22.0918831 L25.3137085,14.3137085 L29.5563492,18.5563492 L21.7781746,26.3345238 C17.4824074,30.630291 10.5175926,30.630291 6.22182541,26.3345238 C1.9260582,22.0387566 1.9260582,15.0739418 6.22182541,10.7781746 Z M13.2928932,6.53553391 L14.7071068,7.94974747 L15.4142136,7.24264069 L14,5.82842712 L13.2928932,6.53553391 Z M26.0208153,19.263456 L26.7279221,18.5563492 L25.3137085,17.1421356 L24.6066017,17.8492424 L26.0208153,19.263456 Z" id="Shape" fill="#2E2E33" fill-rule="nonzero"></path>
            </g>
        </g>
    </g>
</svg>