<?xml version="1.0" encoding="UTF-8"?>
<svg width="32px" height="32px" viewBox="0 0 32 32" version="1.1" xmlns="http://www.w3.org/2000/svg" xmlns:xlink="http://www.w3.org/1999/xlink">
    <!-- Generator: sketchtool 56.3 (101010) - https://sketch.com -->
    <title>fd95ebe9-ea54-4547-8d20-a812b4678a69@3.00x</title>
    <desc>Created with sketchtool.</desc>
    <defs>
        <linearGradient x1="50%" y1="96.746297%" x2="50%" y2="3.12250226e-15%" id="linearGradient-1">
            <stop stop-color="#38B899" offset="0%"></stop>
            <stop stop-color="#12A2E1" offset="100%"></stop>
        </linearGradient>
    </defs>
    <g id="Styles" stroke="none" stroke-width="1" fill="none" fill-rule="evenodd">
        <g id="Icons-/-Support">
            <g id="Group">
                <rect id="Body" x="0" y="0" width="32" height="32"></rect>
                <path d="M0,18 C1.28475295,16.7102803 3.15300938,16.0654205 5.60476929,16.0654205 C9.28240916,16.0654205 9.75,18 13,18 C16.25,18 16.75,16 20,16 C20,17.4300568 20,22.7633901 20,32 L0,32 L0,18 Z" id="Rectangle" fill="url(#linearGradient-1)" fill-rule="nonzero" opacity="0.5"></path>
                <path d="M6.89718121,23.8194462 L11.1641956,19.5524319 C10.4323834,18.5579129 10,17.3294507 10,16 C10,14.7041696 10.410791,13.5042845 11.1092521,12.5234656 L6.83694539,8.25115896 C5.06715687,10.3418413 4,13.0462967 4,16 C4,18.9870643 5.09139934,21.7192186 6.89718121,23.8194462 Z M8.32227102,25.2227835 C10.4029967,26.9568257 13.0796751,28 16,28 C18.9537033,28 21.6581587,26.9328431 23.748841,25.1630546 L19.4765344,20.8907479 C18.4957155,21.589209 17.2958304,22 16,22 C14.7378613,22 13.5667437,21.6102926 12.600412,20.9446426 L8.32227102,25.2227835 Z M23.8194462,6.89718121 C21.7192186,5.09139934 18.9870643,4 16,4 C13.0462967,4 10.3418413,5.06715687 8.25115896,6.83694539 L12.5234656,11.1092521 C13.5042845,10.410791 14.7041696,10 16,10 C17.3294507,10 18.5579129,10.4323834 19.5524319,11.1641956 L23.8194462,6.89718121 Z M25.2227835,8.32227102 L20.9446426,12.600412 C21.6102926,13.5667437 22,14.7378613 22,16 C22,17.2958304 21.589209,18.4957155 20.8907479,19.4765344 L25.1630546,23.748841 C26.9328431,21.6581587 28,18.9537033 28,16 C28,13.0796751 26.9568257,10.4029967 25.2227835,8.32227102 Z M13.698244,19.2717869 C14.3491654,19.7305622 15.1431174,20 16,20 C18.209139,20 20,18.209139 20,16 C20,13.790861 18.209139,12 16,12 C13.790861,12 12,13.790861 12,16 C12,16.8568826 12.2694378,17.6508346 12.7282131,18.301756 L13.698244,19.2717869 Z M16,30 C8.2680135,30 2,23.7319865 2,16 C2,8.2680135 8.2680135,2 16,2 C23.7319865,2 30,8.2680135 30,16 C30,23.7319865 23.7319865,30 16,30 Z" id="Combined-Shape" fill="#2E2E33" fill-rule="nonzero"></path>
            </g>
        </g>
    </g>
</svg>